# xmcd CD database file
#
# Track frame offsets:
#	150
#	16085
#	34085
#	49230
#	66077
#
# Disc length: 1154 seconds
#
# Revision: 0
# Processed by: cddbd v1.5.1PL0 Copyright (c) Steve Scherf et al.
# Submitted via: CDex 1.51
#
DISCID=38048005
DTITLE=Sparks Go Go - SUPERBALL
DYEAR=1900
DGENRE=Rock
TTITLE0=SUPERBALL
TTITLE1=DRIVE IN
TTITLE2=pa-pa-pa
TTITLE3=ビリーブ
TTITLE4=DRIVE IN - TETSUYA REMIX -
EXTD=
EXTT0=
EXTT1=
EXTT2=
EXTT3=
EXTT4=
PLAYORDER=
